<svg xmlns="http://www.w3.org/2000/svg" xmlns:xlink="http://www.w3.org/1999/xlink" width="130.659" height="20.251" viewBox="0 0 130.659 20.251">
  <defs>
    <linearGradient id="linear-gradient" y1="0.5" x2="1" y2="0.5" gradientUnits="objectBoundingBox">
      <stop offset="0" stop-color="#ff1e1e"/>
      <stop offset="1" stop-color="#e5333c"/>
    </linearGradient>
  </defs>
  <path id="Path_9321" data-name="Path 9321" d="M387.2,174.124l3.288,6.668,7.357,1.067-5.323,5.19,1.257,7.326-6.58-3.46-6.58,3.46,1.257-7.326-5.323-5.19,7.355-1.067Zm24.052,6.668-7.357,1.067,5.323,5.19-1.257,7.326,6.58-3.46,6.579,3.46-1.257-7.326,5.323-5.19-7.355-1.067-3.291-6.668Zm27.341,0-7.355,1.067,5.323,5.19-1.257,7.326,6.579-3.46,6.58,3.46-1.257-7.326,5.323-5.19-7.357-1.067-3.288-6.668Zm27.343,0-7.357,1.067,5.323,5.19-1.257,7.326,6.58-3.46,6.579,3.46-1.257-7.326,5.323-5.19-7.355-1.067-3.291-6.668Zm27.341,0-7.355,1.067,5.323,5.19-1.257,7.326,6.579-3.46,6.579,3.46-1.257-7.326,5.323-5.19-7.357-1.067-3.288-6.668Z" transform="translate(-376.556 -174.124)" fill="url(#linear-gradient)"/>
</svg>
