<svg xmlns="http://www.w3.org/2000/svg" xmlns:xlink="http://www.w3.org/1999/xlink" width="171.581" height="21.989" viewBox="0 0 171.581 21.989">
  <defs>
    <linearGradient id="linear-gradient" y1="0.5" x2="1" y2="0.5" gradientUnits="objectBoundingBox">
      <stop offset="0" stop-color="#fff"/>
      <stop offset="1" stop-color="#fff" stop-opacity="0.6"/>
    </linearGradient>
  </defs>
  <path id="Path_9327" data-name="Path 9327" d="M228.917,166.23l3.572,7.238,7.99,1.16-5.781,5.635,1.366,7.956-7.147-3.757-7.144,3.757,1.363-7.956-5.778-5.635,7.987-1.16Zm26.12,7.238-7.99,1.16,5.781,5.635-1.363,7.956,7.144-3.757,7.144,3.757-1.363-7.956,5.781-5.635-7.99-1.16-3.572-7.238Zm29.693,0-7.99,1.16,5.781,5.635-1.366,7.956,7.147-3.757,7.144,3.757-1.363-7.956,5.781-5.635-7.99-1.16L288.3,166.23Zm29.69,0-7.987,1.16,5.781,5.635-1.366,7.956,7.147-3.757,7.144,3.757-1.363-7.956,5.778-5.635-7.987-1.16-3.572-7.238Zm29.693,0-7.987,1.16,5.781,5.635-1.366,7.956,7.147-3.757,7.144,3.757-1.366-7.956,5.781-5.635-7.987-1.16-3.572-7.238Zm29.692,0-7.987,1.16,5.778,5.635-1.363,7.956,7.144-3.757,7.147,3.757-1.366-7.956,5.781-5.635-7.987-1.16-3.575-7.238Z" transform="translate(-217.358 -166.23)" fill="url(#linear-gradient)"/>
</svg>
