<svg id="Olarm_Logo" data-name="Olarm Logo" xmlns="http://www.w3.org/2000/svg" xmlns:xlink="http://www.w3.org/1999/xlink" width="109.56" height="31.339" viewBox="0 0 109.56 31.339">
  <defs>
    <linearGradient id="linear-gradient" x1="0.22" y1="0.5" x2="0" y2="0.5" gradientUnits="objectBoundingBox">
      <stop offset="0" stop-color="#ff1c26"/>
      <stop offset="1" stop-color="#ff1c26"/>
    </linearGradient>
    <radialGradient id="radial-gradient" cx="0.5" cy="0.5" r="0.589" gradientTransform="matrix(1, 0, 0, 0.903, 0, 0.048)" gradientUnits="objectBoundingBox">
      <stop offset="0" stop-color="#ff6a00"/>
      <stop offset="1" stop-color="#ff1c26"/>
    </radialGradient>
  </defs>
  <path id="Path_1405" data-name="Path 1405" d="M276.642,316.156a15.268,15.268,0,1,1-.226,30.3,30.332,30.332,0,0,1-3.533-.89,15.267,15.267,0,0,1,3.758-29.409Zm.728,1.319A13.789,13.789,0,0,0,264.662,330.2a3.47,3.47,0,0,0,.191,1.915,1.916,1.916,0,0,0,3.6-.954,9.955,9.955,0,0,1,9.831-9.894,1.919,1.919,0,0,0,1.22-3.478A3.1,3.1,0,0,0,277.37,317.475Zm-.436,5.362a8.761,8.761,0,0,0-5.821,3.947,8.561,8.561,0,0,0-.87,7.277,8.68,8.68,0,0,0,4.136,4.86,8.529,8.529,0,0,0,6.2.719,8.579,8.579,0,0,0,1.528-16.055A8.8,8.8,0,0,0,276.934,322.837Z" transform="translate(-263.13 -316.065)" fill="url(#linear-gradient)"/>
  <path id="Path_1406" data-name="Path 1406" d="M480.05,319.281a.785.785,0,0,1,.824-.852c1.4,0,2.8-.014,4.2.006a.811.811,0,0,1,.762.84q.012,14.409.006,28.818a.986.986,0,0,1-1.07.969q-1.871.009-3.743,0a1.389,1.389,0,0,1-1-.572C480.072,338.753,480.03,329.018,480.05,319.281Z" transform="translate(-446.289 -318.056)"/>
  <path id="Path_1407" data-name="Path 1407" d="M932.061,346.214q1.059,0,2.12,0v.423c-.283,0-.566,0-.846,0,0,.915,0,1.831,0,2.746h-.423q0-1.374,0-2.746c-.286,0-.571,0-.852,0C932.06,346.531,932.06,346.319,932.061,346.214Z" transform="translate(-828.001 -341.523)"/>
  <path id="Path_1408" data-name="Path 1408" d="M948.36,346.212h.546c.311.5.625,1,.935,1.5.313-.5.622-1,.938-1.5.179,0,.361,0,.544,0,0,1.058,0,2.114,0,3.172h-.431c0-.849,0-1.7,0-2.548-.355.562-.7,1.126-1.056,1.685q-.523-.845-1.053-1.683,0,1.272,0,2.547c-.145,0-.286,0-.426,0C948.366,348.324,948.363,347.268,948.36,346.212Z" transform="translate(-841.765 -341.521)"/>
  <g id="Group_52" data-name="Group 52" transform="translate(42.037 8.942)">
    <path id="Path_1409" data-name="Path 1409" d="M537.734,374.417c2.329-1.064,4.967-.944,7.453-.7a7.658,7.658,0,0,1,5.384,2.652,6.351,6.351,0,0,1,1.006,4.253c-.02,2.385.044,4.769-.03,7.153a8.883,8.883,0,0,1-1.087,4.171,7.617,7.617,0,0,1-3.937,3.208,17.149,17.149,0,0,1-5.521.784,8.272,8.272,0,0,1-6.084-2.089,6.682,6.682,0,0,1-1.562-4.819,5.843,5.843,0,0,1,1.707-4.547,11.945,11.945,0,0,1,6.24-2.291c1.423-.266,2.985-.255,4.219-1.112a1.467,1.467,0,0,0,.28-2.151,3.3,3.3,0,0,0-1.385-.632,6.357,6.357,0,0,0-3.758.121,2.54,2.54,0,0,0-1.308,1.2c-1.817.017-3.635-.009-5.452.014A6.546,6.546,0,0,1,537.734,374.417Zm2.119,12.362a2.761,2.761,0,0,0-.919,3.415,2.34,2.34,0,0,0,2.044,1.286,4.722,4.722,0,0,0,4.608-2.077c.824-1.375.615-3.04.636-4.569C544.209,385.826,541.863,385.782,539.853,386.779Z" transform="translate(-533.356 -373.55)"/>
  </g>
  <path id="Path_1410" data-name="Path 1410" d="M753.994,376.167a11.716,11.716,0,0,1,7.6-2.578,10.113,10.113,0,0,1,6.31,1.943,10.306,10.306,0,0,1,6-1.932,11.825,11.825,0,0,1,7.419,2.246c1.85,1.6,2.34,4.2,2.4,6.523.016,4.4,0,8.808.006,13.212-1.475-.1-3.083.353-4.438-.428a2.928,2.928,0,0,1-1.241-2.682c0-3.057-.008-6.115.006-9.172a6.009,6.009,0,0,0-.554-3.629,4.125,4.125,0,0,0-6.012-.333,3.419,3.419,0,0,0-.879,2.4c-.014,4.619,0,9.237-.006,13.856h-5.625v-12.61a5.313,5.313,0,0,0-.635-3.354,4.089,4.089,0,0,0-5.7-.521,3.176,3.176,0,0,0-1.055,2.313c-.008,4.723,0,9.447,0,14.172h-5.734c0-4.517-.008-9.033.006-13.549C751.953,379.951,752.411,377.667,753.994,376.167Z" transform="translate(-675.827 -364.641)"/>
  <path id="Path_1411" data-name="Path 1411" d="M671.035,376.9a19.525,19.525,0,0,1,4.724-.509v5.846c-1.6.028-3.355-.174-4.78.717a4.119,4.119,0,0,0-1.6,3.634q0,5.686,0,11.371c-1.92-.034-3.841.059-5.759-.042-.047-3.618-.033-7.238-.008-10.857a11.346,11.346,0,0,1,2.24-7.061A9.429,9.429,0,0,1,671.035,376.9Z" transform="translate(-601.296 -367.006)"/>
  <path id="Path_1412" data-name="Path 1412" d="M335.642,389.711a4.145,4.145,0,1,1-.456,7.8,4.147,4.147,0,0,1,.456-7.8Z" transform="translate(-321.834 -378.122)" fill="url(#radial-gradient)"/>
</svg>
